# xmcd
#
# Track frame offsets:
#	150
#	2577
#	7612
#	12597
#	15222
#	17842
#	22675
#	27485
#	30017
#	32555
#	37290
#	41882
#	46732
#	49380
#	54375
#	56985
#	61987
#	66922
#	69645
#	72332
#	74925
#	79902
#	84892
#	87570
#	90222
#	95167
#	100095
#	102777
#	105360
#	108260
#	110990
#	113762
#	116467
#	121387
#	126335
#	131315
#	134042
#	136715
#	139407
#	142045
#	144665
#	149622
#	154572
#	159517
#	164467
#	167185
#	169877
#	171925
#	173160
#	175867
#	178567
#	183540
#	188477
#	193417
#	198335
#	201027
#	203725
#	208717
#	213660
#	216447
#
# Disc length: 2918 seconds
#
# Revision: 1
# Processed by: cddbd v1.5.1PL0 Copyright (c) Steve Scherf et al.
# Submitted via: audiograbber 1.83.01
#
DISCID=6c0b643c
DTITLE=TM Century - MegaMusic - 502 - Country
DYEAR=1900
DGENRE=
TTITLE0=8151-Down Home - Full Mix
TTITLE1=8152-Hay Daze - Full Mix
TTITLE2=8152-Hay Daze - Rhythm Mix
TTITLE3=8153-Excursion - Full Mix
TTITLE4=8153-Excursion - Rhythm Mix
TTITLE5=8154-Country Blues - Full Mix
TTITLE6=8154-Country Blues - Rhythm Mix
TTITLE7=8154-Country Blues - Full Mix-Edit
TTITLE8=8154-Country Blues - Rhythm Mix-Edit
TTITLE9=8155-Dusty Boots - Full Mix
TTITLE10=8155-Dusty Boots - Rhythm Mix
TTITLE11=8156-Typical - Full Mix
TTITLE12=8156-Typical - Rhythm Mix
TTITLE13=8157-Pleasant and Easy - Full Mix
TTITLE14=8157-Pleasant and Easy - Rhythm Mix
TTITLE15=8158-Traditional - Full Mix
TTITLE16=8158-Traditional - Rhythm Mix
TTITLE17=8158-Traditional - Rhythm Mix 2 (30 sec.)
TTITLE18=8158-Traditional - Full Mix-Edit
TTITLE19=8158-Traditional - Rhythm Mix-Edit
TTITLE20=8159-Day Break - Full Mix
TTITLE21=8159-Day Break - Rhythm Mix
TTITLE22=8160-Novel and Spirited - Full Mix
TTITLE23=8160-Novel and Spirited - Rhythm Mix
TTITLE24=8161-Slow Ballad - Full Mix
TTITLE25=8161-Slow Ballad - Rhythm Mix
TTITLE26=8161-Slow Ballad - Full Mix-Edit
TTITLE27=8161-Slow Ballad - Rhythm Mix-Edit
TTITLE28=8162-Rainy Days - Full Mix
TTITLE29=8162-Rainy Days - Rhythm Mix
TTITLE30=8163-Orchestrated - Full Mix
TTITLE31=8163-Orchestrated - Full Mix-Edit
TTITLE32=8164-At The Still - Full Mix
TTITLE33=8164-At The Still - Full Mix-Edit
TTITLE34=8165-Browsing - Full Mix
TTITLE35=8165-Browsing - Full Mix-Edit
TTITLE36=8166-Flurtin' - Full Mix
TTITLE37=8166-Flurtin' - Rhythm Mix
TTITLE38=8167-Country Tease - Full Mix
TTITLE39=8167-Country Tease - Rhythm Mix
TTITLE40=8168-At The Mall - Full Mix
TTITLE41=8168-At The Mall - Rhythm Mix
TTITLE42=8169-Orchestrated - Full Mix
TTITLE43=8169-Orchestrated - Rhythm Mix
TTITLE44=8169-Orchestrated - Full Mix-Edit
TTITLE45=8169-Orchestrated - Rhythm Mix-Edit
TTITLE46=8169-Orchestrated - Full Mix-Edit (23 sec.)
TTITLE47=8169-Orchestrated - Rhythm Mix-Edit (12 sec.)
TTITLE48=8170-Pickin' - Full Mix
TTITLE49=8170-Pickin' - Rhythm Mix
TTITLE50=8171-Young Country Style - Full Mix
TTITLE51=8172-Relaxing - Full Mix
TTITLE52=8173-Quick Draw - Full Mix
TTITLE53=8173-Quick Draw - Rhythm Mix
TTITLE54=8173-Quick Draw - Full Mix-Edit
TTITLE55=8173-Quick Draw - Rhythm Mix-Edit
TTITLE56=8174-Reminiscing - Full Mix
TTITLE57=8174-Reminiscing - Rhythm Mix
TTITLE58=8174-Reminiscing - Full Mix-Edit
TTITLE59=8174-Reminiscing - Rhythm Mix-Edit
EXTD=
EXTT0=
EXTT1=
EXTT2=
EXTT3=
EXTT4=
EXTT5=
EXTT6=
EXTT7=
EXTT8=
EXTT9=
EXTT10=
EXTT11=
EXTT12=
EXTT13=
EXTT14=
EXTT15=
EXTT16=
EXTT17=
EXTT18=
EXTT19=
EXTT20=
EXTT21=
EXTT22=
EXTT23=
EXTT24=
EXTT25=
EXTT26=
EXTT27=
EXTT28=
EXTT29=
EXTT30=
EXTT31=
EXTT32=
EXTT33=
EXTT34=
EXTT35=
EXTT36=
EXTT37=
EXTT38=
EXTT39=
EXTT40=
EXTT41=
EXTT42=
EXTT43=
EXTT44=
EXTT45=
EXTT46=
EXTT47=
EXTT48=
EXTT49=
EXTT50=
EXTT51=
EXTT52=
EXTT53=
EXTT54=
EXTT55=
EXTT56=
EXTT57=
EXTT58=
EXTT59=
PLAYORDER=
